<?xml version="1.0" encoding="UTF-8" standalone="no"?>
<svg
   xmlns:dc="http://purl.org/dc/elements/1.1/"
   xmlns:cc="http://creativecommons.org/ns#"
   xmlns:rdf="http://www.w3.org/1999/02/22-rdf-syntax-ns#"
   xmlns:svg="http://www.w3.org/2000/svg"
   xmlns="http://www.w3.org/2000/svg"
   xmlns:sodipodi="http://sodipodi.sourceforge.net/DTD/sodipodi-0.dtd"
   xmlns:inkscape="http://www.inkscape.org/namespaces/inkscape"
   width="210mm"
   height="297mm"
   viewBox="0 0 210 297"
   version="1.1"
   id="svg8"
   inkscape:version="1.0.1 (3bc2e813f5, 2020-09-07)"
   sodipodi:docname="fondo.svg">
  <defs
     id="defs2" />
  <sodipodi:namedview
     id="base"
     pagecolor="#ffffff"
     bordercolor="#666666"
     borderopacity="1.0"
     inkscape:pageopacity="0.0"
     inkscape:pageshadow="2"
     inkscape:zoom="0.49497475"
     inkscape:cx="452.4889"
     inkscape:cy="588.92826"
     inkscape:document-units="mm"
     inkscape:current-layer="layer1"
     inkscape:document-rotation="0"
     showgrid="false"
     inkscape:window-width="1258"
     inkscape:window-height="729"
     inkscape:window-x="92"
     inkscape:window-y="0"
     inkscape:window-maximized="0" />
  <metadata
     id="metadata5">
    <rdf:RDF>
      <cc:Work
         rdf:about="">
        <dc:format>image/svg+xml</dc:format>
        <dc:type
           rdf:resource="http://purl.org/dc/dcmitype/StillImage" />
        <dc:title />
      </cc:Work>
    </rdf:RDF>
  </metadata>
  <g
     inkscape:label="Capa 1"
     inkscape:groupmode="layer"
     id="layer1">
    <path
       id="rect10"
       style="fill:#0031ff;stroke:#000080;stroke-width:0.304893;stroke-linejoin:round;stroke-miterlimit:4;stroke-dasharray:none;fill-opacity:1"
       d="M 36.426565,117.13458 H 173.57344 c 17.37645,0 31.36542,13.98898 31.36542,31.36542 0,17.37645 -13.98897,31.36542 -31.36542,31.36542 H 36.426565 c -17.376446,0 -31.3654258,-13.98897 -31.3654258,-31.36542 0,-17.37644 13.9889798,-31.36542 31.3654258,-31.36542 z" />
    <g
       aria-label="DESCARGAR"
       id="text837"
       style="font-size:23.3365px;line-height:1.25;font-family:sans-serif;letter-spacing:0px;stroke-width:0.583414"
       transform="matrix(1.1505396,0,0,1.1505396,-26.919294,39.028516)">
      <path
         d="M 40.803394,102.87361 V 102.452 h 0.512765 q 0.672292,0 1.02553,-0.2051 0.364633,-0.2165 0.535554,-0.58113 0.102553,-0.2393 0.102553,-1.43575 V 90.065884 q 0,-1.185057 -0.125342,-1.481321 -0.125343,-0.296264 -0.512765,-0.512765 -0.376028,-0.227895 -1.02553,-0.227895 h -0.512765 v -0.421607 h 6.916629 q 2.76893,0 4.455357,0.752055 2.062454,0.922977 3.122169,2.79172 1.071108,1.868743 1.071108,4.227462 0,1.629453 -0.524159,3.008221 -0.52416,1.367373 -1.355979,2.267556 -0.831818,0.8888 -1.925717,1.43575 -1.082503,0.53555 -2.654982,0.83181 -0.695082,0.13674 -2.187797,0.13674 z m 5.891099,-14.573916 v 12.055676 q 0,0.95716 0.09116,1.17366 0.09116,0.2165 0.307659,0.33045 0.307659,0.17092 0.888793,0.17092 1.902927,0 2.905667,-1.29901 1.367373,-1.754792 1.367373,-5.446699 0,-2.974036 -0.934371,-4.751621 -0.740661,-1.390163 -1.902928,-1.891533 -0.820423,-0.353238 -2.723351,-0.341843 z"
         style="font-style:normal;font-variant:normal;font-weight:bold;font-stretch:normal;font-family:'Times New Roman';-inkscape-font-specification:'Times New Roman, Bold';fill:#ffffff;stroke-width:0.583414"
         id="path859" />
      <path
         d="m 63.706893,88.311088 v 6.289916 h 0.307659 q 1.469926,0 2.130823,-0.922976 0.660897,-0.922977 0.843213,-2.723352 h 0.433002 v 8.090291 H 66.988588 Q 66.851851,97.723173 66.407455,96.87996 65.974453,96.036746 65.39332,95.751877 64.812186,95.455613 63.706893,95.455613 v 4.352804 q 0,1.276213 0.102553,1.561083 0.113947,0.28487 0.410212,0.46719 0.296264,0.18231 0.957161,0.18231 h 0.922977 q 2.165007,0 3.464011,-1.00274 1.3104,-1.00274 1.880138,-3.053797 h 0.421607 l -0.695081,4.911147 H 57.815794 V 102.452 h 0.512765 q 0.672291,0 1.082503,-0.23929 0.296265,-0.15952 0.455791,-0.54694 0.125343,-0.27348 0.125343,-1.43575 V 90.065884 q 0,-1.04832 -0.05697,-1.28761 -0.113948,-0.398817 -0.421607,-0.615318 -0.433001,-0.319053 -1.185056,-0.319053 h -0.512765 v -0.421607 h 12.93307 v 4.569305 h -0.433001 q -0.330449,-1.675032 -0.934372,-2.404298 -0.592528,-0.729265 -1.686427,-1.071109 -0.638107,-0.205106 -2.392903,-0.205106 z"
         style="font-style:normal;font-variant:normal;font-weight:bold;font-stretch:normal;font-family:'Times New Roman';-inkscape-font-specification:'Times New Roman, Bold';fill:#ffffff;stroke-width:0.583414"
         id="path861" />
      <path
         d="m 83.875646,87.069058 0.125342,5.150438 h -0.467185 q -0.330449,-1.937111 -1.629453,-3.110773 -1.28761,-1.185057 -2.79172,-1.185057 -1.162267,0 -1.845954,0.626713 -0.672292,0.615318 -0.672292,1.424347 0,0.512765 0.239291,0.911582 0.330448,0.535554 1.059714,1.059714 0.535554,0.376027 2.472666,1.333189 2.711956,1.333188 3.657723,2.518245 0.934371,1.185057 0.934371,2.711956 0,1.937108 -1.515505,3.338668 -1.50411,1.39016 -3.828644,1.39016 -0.729266,0 -1.378768,-0.14813 -0.649502,-0.14813 -1.629453,-0.55834 -0.546949,-0.2279 -0.900187,-0.2279 -0.296264,0 -0.626713,0.2279 -0.330448,0.22789 -0.535554,0.69508 h -0.421607 v -5.834126 h 0.421607 q 0.50137,2.461272 1.925717,3.760276 1.435741,1.28761 3.087984,1.28761 1.276215,0 2.02827,-0.69508 0.76345,-0.69508 0.76345,-1.61806 0,-0.546949 -0.296264,-1.059714 -0.28487,-0.512764 -0.877398,-0.968555 -0.592528,-0.467186 -2.096639,-1.207847 -2.108033,-1.036924 -3.03101,-1.76619 -0.922977,-0.729266 -1.424347,-1.629453 -0.489975,-0.900187 -0.489975,-1.982691 0,-1.845953 1.355978,-3.144958 1.355978,-1.299004 3.418433,-1.299004 0.752055,0 1.458531,0.182316 0.535554,0.136738 1.299004,0.512765 0.774845,0.364633 1.082504,0.364633 0.296264,0 0.467186,-0.182316 0.170921,-0.182317 0.319054,-0.877398 z"
         style="font-style:normal;font-variant:normal;font-weight:bold;font-stretch:normal;font-family:'Times New Roman';-inkscape-font-specification:'Times New Roman, Bold';fill:#ffffff;stroke-width:0.583414"
         id="path863" />
      <path
         d="m 101.46918,87.069058 v 5.355544 h -0.4444 q -0.50137,-2.096638 -1.86874,-3.213326 -1.367374,-1.116688 -3.099379,-1.116688 -1.447137,0 -2.654983,0.831818 -1.207846,0.831819 -1.76619,2.176402 -0.717871,1.720611 -0.717871,3.828645 0,2.073849 0.52416,3.783065 0.524159,1.697822 1.640847,2.575222 1.116688,0.866 2.894273,0.866 1.458531,0 2.666378,-0.63811 1.219241,-0.6381 2.563825,-2.199188 v 1.333188 q -1.299005,1.35598 -2.711957,1.9713 -1.401558,0.60392 -3.281696,0.60392 -2.472666,0 -4.398383,-0.99135 -1.914322,-0.99134 -2.962642,-2.84869 -1.036924,-1.857348 -1.036924,-3.953987 0,-2.210586 1.150872,-4.193277 1.162267,-1.982691 3.122169,-3.07659 1.971296,-1.093898 4.181882,-1.093898 1.629453,0 3.441222,0.706476 1.04832,0.410212 1.333187,0.410212 0.36463,0 0.62671,-0.26208 0.27348,-0.273475 0.35324,-0.854608 z"
         style="font-style:normal;font-variant:normal;font-weight:bold;font-stretch:normal;font-family:'Times New Roman';-inkscape-font-specification:'Times New Roman, Bold';fill:#ffffff;stroke-width:0.583414"
         id="path865" />
      <path
         d="m 112.45374,98.475228 h -5.4581 l -0.6495,1.50411 q -0.31905,0.752052 -0.31905,1.242032 0,0.6495 0.52416,0.95716 0.30766,0.18232 1.5155,0.27347 v 0.42161 h -5.13904 V 102.452 q 0.83182,-0.12534 1.36737,-0.68368 0.53556,-0.56974 1.3218,-2.335931 l 5.52646,-12.329147 h 0.2165 l 5.57205,12.670991 q 0.79763,1.800377 1.3104,2.267557 0.38742,0.35324 1.09389,0.41021 v 0.42161 h -7.47497 V 102.452 h 0.30766 q 0.90019,0 1.26482,-0.25068 0.25069,-0.18232 0.25069,-0.52416 0,-0.20511 -0.0684,-0.42161 -0.0228,-0.10255 -0.34185,-0.8546 z m -0.38742,-0.843213 -2.30175,-5.32136 -2.37011,5.32136 z"
         style="font-style:normal;font-variant:normal;font-weight:bold;font-stretch:normal;font-family:'Times New Roman';-inkscape-font-specification:'Times New Roman, Bold';fill:#ffffff;stroke-width:0.583414"
         id="path867" />
      <path
         d="m 125.79702,95.83164 v 4.33001 q 0,1.25343 0.14814,1.58388 0.15952,0.31905 0.54695,0.51276 0.38742,0.19371 1.44713,0.19371 v 0.42161 h -7.90797 V 102.452 q 1.07111,0 1.44713,-0.19371 0.38743,-0.2051 0.53556,-0.52416 0.15953,-0.31905 0.15953,-1.57248 V 90.134252 q 0,-1.253425 -0.15953,-1.572479 -0.14813,-0.330448 -0.53556,-0.524159 -0.38742,-0.193711 -1.44713,-0.193711 v -0.421607 h 7.17871 q 2.80311,0 4.10212,0.387422 1.299,0.387423 2.11942,1.435742 0.82043,1.036925 0.82043,2.438482 0,1.709216 -1.23064,2.825904 -0.78624,0.706476 -2.19919,1.059714 l 3.7147,5.2302 q 0.72926,1.01414 1.03692,1.26482 0.46719,0.35324 1.08251,0.38742 v 0.42161 h -4.86557 l -4.97952,-7.04197 z m 0,-7.577525 v 6.768496 h 0.64951 q 1.58387,0 2.37011,-0.284869 0.78624,-0.296264 1.23064,-1.04832 0.45579,-0.76345 0.45579,-1.982691 0,-1.76619 -0.83182,-2.609403 -0.82043,-0.843213 -2.65498,-0.843213 z"
         style="font-style:normal;font-variant:normal;font-weight:bold;font-stretch:normal;font-family:'Times New Roman';-inkscape-font-specification:'Times New Roman, Bold';fill:#ffffff;stroke-width:0.583414"
         id="path869" />
      <path
         d="m 152.55196,87.069058 v 5.446703 h -0.42161 q -0.76345,-2.233376 -2.29035,-3.395644 -1.5269,-1.162267 -3.33867,-1.162267 -1.732,0 -2.88287,0.979951 -1.15088,0.968556 -1.62946,2.711957 -0.47858,1.7434 -0.47858,3.577959 0,2.221981 0.52416,3.897013 0.52416,1.67503 1.68643,2.46127 1.17366,0.78624 2.78032,0.78624 0.55835,0 1.13948,-0.11395 0.59253,-0.12534 1.20785,-0.35323 v -3.213331 q 0,-0.911582 -0.12535,-1.173662 -0.12534,-0.273475 -0.52416,-0.489975 -0.38742,-0.216501 -0.94576,-0.216501 h -0.39882 v -0.421607 h 7.50916 v 0.421607 q -0.85461,0.05697 -1.19645,0.23929 -0.33045,0.170922 -0.51277,0.581134 -0.10255,0.2165 -0.10255,1.059714 v 3.213331 q -1.48132,0.66089 -3.08799,0.99134 -1.59526,0.34184 -3.31587,0.34184 -2.1992,0 -3.65773,-0.59252 -1.44713,-0.60393 -2.56382,-1.57248 -1.1053,-0.97995 -1.73201,-2.199195 -0.79763,-1.572479 -0.79763,-3.520985 0,-3.486802 2.44987,-5.891099 2.44988,-2.404298 6.16458,-2.404298 1.15087,0 2.07385,0.182317 0.50137,0.09116 1.61806,0.524159 1.12808,0.421607 1.33318,0.421607 0.31906,0 0.59253,-0.227896 0.27348,-0.23929 0.50137,-0.888792 z"
         style="font-style:normal;font-variant:normal;font-weight:bold;font-stretch:normal;font-family:'Times New Roman';-inkscape-font-specification:'Times New Roman, Bold';fill:#ffffff;stroke-width:0.583414"
         id="path871" />
      <path
         d="m 164.31137,98.475228 h -5.4581 l -0.6495,1.50411 q -0.31905,0.752052 -0.31905,1.242032 0,0.6495 0.52415,0.95716 0.30766,0.18232 1.51551,0.27347 v 0.42161 h -5.13904 V 102.452 q 0.83181,-0.12534 1.36737,-0.68368 0.53555,-0.56974 1.32179,-2.335931 l 5.52647,-12.329147 h 0.2165 l 5.57205,12.670991 q 0.79763,1.800377 1.31039,2.267557 0.38743,0.35324 1.0939,0.41021 v 0.42161 h -7.47497 V 102.452 h 0.30766 q 0.90019,0 1.26482,-0.25068 0.25068,-0.18232 0.25068,-0.52416 0,-0.20511 -0.0684,-0.42161 -0.0228,-0.10255 -0.34185,-0.8546 z m -0.38742,-0.843213 -2.30175,-5.32136 -2.37011,5.32136 z"
         style="font-style:normal;font-variant:normal;font-weight:bold;font-stretch:normal;font-family:'Times New Roman';-inkscape-font-specification:'Times New Roman, Bold';fill:#ffffff;stroke-width:0.583414"
         id="path873" />
      <path
         d="m 177.65465,95.83164 v 4.33001 q 0,1.25343 0.14813,1.58388 0.15953,0.31905 0.54695,0.51276 0.38743,0.19371 1.44714,0.19371 v 0.42161 H 171.8889 V 102.452 q 1.0711,0 1.44713,-0.19371 0.38742,-0.2051 0.53556,-0.52416 0.15952,-0.31905 0.15952,-1.57248 V 90.134252 q 0,-1.253425 -0.15952,-1.572479 -0.14814,-0.330448 -0.53556,-0.524159 -0.38742,-0.193711 -1.44713,-0.193711 v -0.421607 h 7.1787 q 2.80312,0 4.10212,0.387422 1.29901,0.387423 2.11943,1.435742 0.82043,1.036925 0.82043,2.438482 0,1.709216 -1.23064,2.825904 -0.78624,0.706476 -2.19919,1.059714 l 3.7147,5.2302 q 0.72926,1.01414 1.03692,1.26482 0.46719,0.35324 1.0825,0.38742 v 0.42161 h -4.86557 l -4.97951,-7.04197 z m 0,-7.577525 v 6.768496 h 0.6495 q 1.58388,0 2.37012,-0.284869 0.78624,-0.296264 1.23063,-1.04832 0.45579,-0.76345 0.45579,-1.982691 0,-1.76619 -0.83181,-2.609403 -0.82043,-0.843213 -2.65499,-0.843213 z"
         style="font-style:normal;font-variant:normal;font-weight:bold;font-stretch:normal;font-family:'Times New Roman';-inkscape-font-specification:'Times New Roman, Bold';fill:#ffffff;stroke-width:0.583414"
         id="path875" />
    </g>
  </g>
</svg>
